<svg width="87" height="87" viewBox="0 0 87 87" fill="none" xmlns="http://www.w3.org/2000/svg">
<path d="M48.8276 32.2082L48.6677 36.3637C44.0327 38.0153 40.2767 39.6136 37.3998 41.1586C34.5229 42.7036 32.312 44.3285 30.767 46.0333C29.2752 47.6849 28.2363 49.4963 27.6503 51.4675C27.1175 53.4387 26.8512 55.6763 26.8512 58.1803C26.8512 62.4956 27.7036 65.6389 29.4084 67.6101C31.1665 69.5281 33.4308 70.4871 36.2011 70.4871C38.0125 70.4871 39.5841 70.1141 40.9161 69.3683C42.248 68.6224 43.2868 67.4503 44.0327 65.852C44.7786 64.2538 45.1515 62.176 45.1515 59.6187V21.6595C45.1515 17.3974 43.9794 14.0677 41.6353 11.6702C39.3444 9.21954 35.8548 7.99419 31.1665 7.99419C28.7691 7.99419 26.5581 8.10074 24.5336 8.31384C22.5624 8.52695 20.8842 8.8466 19.4991 9.27281L22.8555 4.47797C22.4825 8.15402 22.0829 11.2174 21.6567 13.6681C21.2305 16.0655 20.7777 18.0101 20.2982 19.5018C19.8187 20.9403 19.2327 22.1124 18.5401 23.018C17.6877 24.1901 16.3824 25.1491 14.6243 25.895C12.9195 26.6408 11.0282 27.0138 8.95039 27.0138C6.18003 27.0138 4.1289 26.5609 2.797 25.6552C1.46509 24.6962 0.799142 23.4176 0.799142 21.8193C0.799142 19.4219 2.02449 16.9712 4.47519 14.4672C6.9259 11.91 10.1757 9.56583 14.2247 7.43479C18.327 5.25047 22.9087 3.49236 27.97 2.16045C33.0312 0.82855 38.1723 0.162598 43.3934 0.162598C50.5857 0.162598 56.3395 1.20148 60.6549 3.27925C65.0235 5.30374 68.1668 8.23393 70.0847 12.0698C72.0027 15.8524 72.9616 20.3276 72.9616 25.4954V68.4892C72.9616 69.8211 73.1747 70.9133 73.601 71.7657C74.0272 72.6181 74.6398 73.2574 75.439 73.6836C76.2914 74.0566 77.277 74.243 78.3958 74.243C79.6744 74.243 80.9531 74.0832 82.2317 73.7635C83.5636 73.3906 84.9221 72.8578 86.3073 72.1653V76.161C82.205 79.9968 78.3425 82.634 74.7197 84.0725C71.097 85.4576 66.9947 86.1502 62.413 86.1502C58.3107 86.1502 55.0076 85.4044 52.5036 83.9126C50.0529 82.3676 48.2415 79.9968 47.0694 76.8003C45.9506 73.5504 45.3113 69.4215 45.1515 64.4136L46.2703 65.1328C45.2048 69.8211 43.6065 73.7103 41.4755 76.8003C39.3977 79.8903 36.8671 82.2078 33.8836 83.7528C30.9534 85.2978 27.6503 86.0703 23.9742 86.0703C16.2492 86.0703 10.3089 84.179 6.15339 80.3964C2.05113 76.5605 0 71.3661 0 64.8132C0 61.51 0.559399 58.5532 1.6782 55.9427C2.85027 53.2789 5.08787 50.7749 8.39099 48.4308C11.7474 46.0333 16.6488 43.556 23.0952 40.9987C29.5949 38.3882 38.1723 35.458 48.8276 32.2082Z" fill="#030025"/>
<path d="M48.8276 32.2082L48.6677 36.3637C44.0327 38.0153 40.2767 39.6136 37.3998 41.1586C34.5229 42.7036 32.312 44.3285 30.767 46.0333C29.2752 47.6849 28.2363 49.4963 27.6503 51.4675C27.1175 53.4387 26.8512 55.6763 26.8512 58.1803C26.8512 62.4956 27.7036 65.6389 29.4084 67.6101C31.1665 69.5281 33.4308 70.4871 36.2011 70.4871C38.0125 70.4871 39.5841 70.1141 40.9161 69.3683C42.248 68.6224 43.2868 67.4503 44.0327 65.852C44.7786 64.2538 45.1515 62.176 45.1515 59.6187V21.6595C45.1515 17.3974 43.9794 14.0677 41.6353 11.6702C39.3444 9.21954 35.8548 7.99419 31.1665 7.99419C28.7691 7.99419 26.5581 8.10074 24.5336 8.31384C22.5624 8.52695 20.8842 8.8466 19.4991 9.27281L22.8555 4.47797C22.4825 8.15402 22.0829 11.2174 21.6567 13.6681C21.2305 16.0655 20.7777 18.0101 20.2982 19.5018C19.8187 20.9403 19.2327 22.1124 18.5401 23.018C17.6877 24.1901 16.3824 25.1491 14.6243 25.895C12.9195 26.6408 11.0282 27.0138 8.95039 27.0138C6.18003 27.0138 4.1289 26.5609 2.797 25.6552C1.46509 24.6962 0.799142 23.4176 0.799142 21.8193C0.799142 19.4219 2.02449 16.9712 4.47519 14.4672C6.9259 11.91 10.1757 9.56583 14.2247 7.43479C18.327 5.25047 22.9087 3.49236 27.97 2.16045C33.0312 0.82855 38.1723 0.162598 43.3934 0.162598C50.5857 0.162598 56.3395 1.20148 60.6549 3.27925C65.0235 5.30374 68.1668 8.23393 70.0847 12.0698C72.0027 15.8524 72.9616 20.3276 72.9616 25.4954V68.4892C72.9616 69.8211 73.1747 70.9133 73.601 71.7657C74.0272 72.6181 74.6398 73.2574 75.439 73.6836C76.2914 74.0566 77.277 74.243 78.3958 74.243C79.6744 74.243 80.9531 74.0832 82.2317 73.7635C83.5636 73.3906 84.9221 72.8578 86.3073 72.1653V76.161C82.205 79.9968 78.3425 82.634 74.7197 84.0725C71.097 85.4576 66.9947 86.1502 62.413 86.1502C58.3107 86.1502 55.0076 85.4044 52.5036 83.9126C50.0529 82.3676 48.2415 79.9968 47.0694 76.8003C45.9506 73.5504 45.3113 69.4215 45.1515 64.4136L46.2703 65.1328C45.2048 69.8211 43.6065 73.7103 41.4755 76.8003C39.3977 79.8903 36.8671 82.2078 33.8836 83.7528C30.9534 85.2978 27.6503 86.0703 23.9742 86.0703C16.2492 86.0703 10.3089 84.179 6.15339 80.3964C2.05113 76.5605 0 71.3661 0 64.8132C0 61.51 0.559399 58.5532 1.6782 55.9427C2.85027 53.2789 5.08787 50.7749 8.39099 48.4308C11.7474 46.0333 16.6488 43.556 23.0952 40.9987C29.5949 38.3882 38.1723 35.458 48.8276 32.2082Z" fill="url(#paint0_radial_1791_1283)" fill-opacity="0.15"/>
<defs>
<radialGradient id="paint0_radial_1791_1283" cx="0" cy="0" r="1" gradientUnits="userSpaceOnUse" gradientTransform="translate(39.4977 33.4856) rotate(91.2701) scale(75.5271 52.9783)">
<stop offset="0.681485" stop-color="white" stop-opacity="0"/>
<stop offset="1" stop-color="white"/>
</radialGradient>
</defs>
</svg>
