<svg width="78" height="87" viewBox="0 0 78 87" fill="none" xmlns="http://www.w3.org/2000/svg">
<path d="M43.0943 0.162598C49.8603 0.162598 55.6141 1.4945 60.3557 4.15831C65.0973 6.76884 68.8 10.5781 71.4638 15.586C74.1276 20.594 75.7259 26.6142 76.2586 33.6466H22.0768V27.3334H64.1117L51.4852 31.2492C51.1656 24.6962 50.5529 19.5817 49.6472 15.9057C48.7948 12.1764 47.5961 9.53919 46.0511 7.99419C44.5593 6.44918 42.6681 5.67668 40.3772 5.67668C37.5535 5.67668 35.1561 6.52909 33.1849 8.23393C31.2669 9.93876 29.8019 12.8157 28.7896 16.8647C27.7774 20.9136 27.2713 26.481 27.2713 33.5667C27.2713 41.8245 28.2302 48.484 30.1482 53.5453C32.1194 58.5532 35.0229 62.2026 38.8588 64.4935C42.6947 66.7844 47.4363 67.9298 53.0835 67.9298C55.9604 67.9298 58.6509 67.6101 61.1549 66.9708C63.7121 66.2782 66.1628 65.1861 68.507 63.6944C70.9044 62.2026 73.3018 60.2048 75.6992 57.7008L77.6172 59.379C73.8878 66.0385 70.1319 71.3395 66.3493 75.2819C62.62 79.1711 58.6775 81.9681 54.522 83.6729C50.4197 85.3244 45.8646 86.1502 40.8567 86.1502C32.9718 86.1502 26.0193 84.5253 19.9991 81.2755C13.9789 78.0256 9.29056 73.3107 5.93416 67.1307C2.63104 60.9506 0.979492 53.5186 0.979492 44.8346C0.979492 36.8432 2.57776 29.4645 5.77433 22.6984C8.9709 15.8791 13.6858 10.4183 19.9191 6.31599C26.2057 2.21373 33.9308 0.162598 43.0943 0.162598Z" fill="#030025"/>
<path d="M43.0943 0.162598C49.8603 0.162598 55.6141 1.4945 60.3557 4.15831C65.0973 6.76884 68.8 10.5781 71.4638 15.586C74.1276 20.594 75.7259 26.6142 76.2586 33.6466H22.0768V27.3334H64.1117L51.4852 31.2492C51.1656 24.6962 50.5529 19.5817 49.6472 15.9057C48.7948 12.1764 47.5961 9.53919 46.0511 7.99419C44.5593 6.44918 42.6681 5.67668 40.3772 5.67668C37.5535 5.67668 35.1561 6.52909 33.1849 8.23393C31.2669 9.93876 29.8019 12.8157 28.7896 16.8647C27.7774 20.9136 27.2713 26.481 27.2713 33.5667C27.2713 41.8245 28.2302 48.484 30.1482 53.5453C32.1194 58.5532 35.0229 62.2026 38.8588 64.4935C42.6947 66.7844 47.4363 67.9298 53.0835 67.9298C55.9604 67.9298 58.6509 67.6101 61.1549 66.9708C63.7121 66.2782 66.1628 65.1861 68.507 63.6944C70.9044 62.2026 73.3018 60.2048 75.6992 57.7008L77.6172 59.379C73.8878 66.0385 70.1319 71.3395 66.3493 75.2819C62.62 79.1711 58.6775 81.9681 54.522 83.6729C50.4197 85.3244 45.8646 86.1502 40.8567 86.1502C32.9718 86.1502 26.0193 84.5253 19.9991 81.2755C13.9789 78.0256 9.29056 73.3107 5.93416 67.1307C2.63104 60.9506 0.979492 53.5186 0.979492 44.8346C0.979492 36.8432 2.57776 29.4645 5.77433 22.6984C8.9709 15.8791 13.6858 10.4183 19.9191 6.31599C26.2057 2.21373 33.9308 0.162598 43.0943 0.162598Z" fill="url(#paint0_radial_1791_1279)" fill-opacity="0.15"/>
<defs>
<radialGradient id="paint0_radial_1791_1279" cx="0" cy="0" r="1" gradientUnits="userSpaceOnUse" gradientTransform="translate(36.052 33.4856) rotate(91.1278) scale(75.5232 47.0452)">
<stop offset="0.681485" stop-color="white" stop-opacity="0"/>
<stop offset="1" stop-color="white"/>
</radialGradient>
</defs>
</svg>
