<svg width="103" height="120" viewBox="0 0 103 120" fill="none" xmlns="http://www.w3.org/2000/svg">
<path d="M58.4523 116.595L66.4437 114.117V65.2899C66.4437 62.413 65.9908 60.0954 65.0851 58.3373C64.2327 56.5792 62.9275 55.3006 61.1693 54.5015C59.4112 53.649 57.147 53.2228 54.3766 53.2228C51.7661 53.2228 49.1556 53.5958 46.5451 54.3416C43.9878 55.0342 41.4039 56.0198 38.7934 57.2985L38.3938 55.7801C42.4961 51.3582 46.0123 47.8153 48.9425 45.1515C51.9259 42.4344 54.5898 40.4099 56.9339 39.078C59.3313 37.6929 61.6755 36.7871 63.9663 36.3609C66.3105 35.8815 68.9477 35.6417 71.8778 35.6417C79.2832 35.6417 84.8506 37.6928 88.5799 41.7951C92.3625 45.8974 94.2538 51.8643 94.2538 59.6959V113.958L102.725 116.595V119.072H58.4523V116.595ZM49.5818 119.072H5.38925V116.595L13.8602 113.958V23.1751C13.1676 22.5358 12.2086 21.6567 10.9832 20.5379C9.7579 19.4191 8.2928 18.1139 6.58797 16.6221C4.88313 15.0771 2.99183 13.3723 0.914062 11.5076V9.27005L40.2318 0H41.7502V28.7691V114.117L49.5818 116.595V119.072Z" fill="#030025"/>
<path d="M58.4523 116.595L66.4437 114.117V65.2899C66.4437 62.413 65.9908 60.0954 65.0851 58.3373C64.2327 56.5792 62.9275 55.3006 61.1693 54.5015C59.4112 53.649 57.147 53.2228 54.3766 53.2228C51.7661 53.2228 49.1556 53.5958 46.5451 54.3416C43.9878 55.0342 41.4039 56.0198 38.7934 57.2985L38.3938 55.7801C42.4961 51.3582 46.0123 47.8153 48.9425 45.1515C51.9259 42.4344 54.5898 40.4099 56.9339 39.078C59.3313 37.6929 61.6755 36.7871 63.9663 36.3609C66.3105 35.8815 68.9477 35.6417 71.8778 35.6417C79.2832 35.6417 84.8506 37.6928 88.5799 41.7951C92.3625 45.8974 94.2538 51.8643 94.2538 59.6959V113.958L102.725 116.595V119.072H58.4523V116.595ZM49.5818 119.072H5.38925V116.595L13.8602 113.958V23.1751C13.1676 22.5358 12.2086 21.6567 10.9832 20.5379C9.7579 19.4191 8.2928 18.1139 6.58797 16.6221C4.88313 15.0771 2.99183 13.3723 0.914062 11.5076V9.27005L40.2318 0H41.7502V28.7691V114.117L49.5818 116.595V119.072Z" fill="url(#paint0_radial_1791_1282)" fill-opacity="0.15"/>
<defs>
<radialGradient id="paint0_radial_1791_1282" cx="0" cy="0" r="1" gradientUnits="userSpaceOnUse" gradientTransform="translate(47.5067 46.1444) rotate(91.082) scale(104.58 62.499)">
<stop offset="0.681485" stop-color="white" stop-opacity="0"/>
<stop offset="1" stop-color="white"/>
</radialGradient>
</defs>
</svg>
