<svg width="100" height="86" viewBox="0 0 100 86" fill="none" xmlns="http://www.w3.org/2000/svg">
<path d="M38.5038 20.1021V80.1176L46.4153 82.5949V85.0723H2.2228V82.5949L10.6937 79.9578V22.7392C9.788 21.7803 8.50938 20.4217 6.85782 18.6636C5.25954 16.9055 3.26168 14.9343 0.864258 12.75V10.5124L37.0654 0.842773H38.5038V20.1021ZM55.2858 82.5949L63.2772 80.1176V31.2901C63.2772 28.4131 62.8244 26.0956 61.9187 24.3375C61.0663 22.5794 59.761 21.3008 58.0029 20.5017C56.2448 19.6492 53.9805 19.223 51.2102 19.223C48.5464 19.223 45.9358 19.596 43.3786 20.3418C40.8213 21.0344 38.2374 22.02 35.6269 23.2986L35.2273 21.7803C39.3296 17.3584 42.8458 13.8155 45.776 11.1517C48.7595 8.43461 51.4233 6.41012 53.7674 5.07822C56.1116 3.69304 58.4557 2.78734 60.7999 2.36114C63.144 1.88165 65.7812 1.64191 68.7114 1.64191C76.1167 1.64191 81.6841 3.69304 85.4134 7.7953C89.196 11.8976 91.0873 17.8645 91.0873 25.6961V79.9578L99.5582 82.5949V85.0723H55.2858V82.5949Z" fill="#030025"/>
<path d="M38.5038 20.1021V80.1176L46.4153 82.5949V85.0723H2.2228V82.5949L10.6937 79.9578V22.7392C9.788 21.7803 8.50938 20.4217 6.85782 18.6636C5.25954 16.9055 3.26168 14.9343 0.864258 12.75V10.5124L37.0654 0.842773H38.5038V20.1021ZM55.2858 82.5949L63.2772 80.1176V31.2901C63.2772 28.4131 62.8244 26.0956 61.9187 24.3375C61.0663 22.5794 59.761 21.3008 58.0029 20.5017C56.2448 19.6492 53.9805 19.223 51.2102 19.223C48.5464 19.223 45.9358 19.596 43.3786 20.3418C40.8213 21.0344 38.2374 22.02 35.6269 23.2986L35.2273 21.7803C39.3296 17.3584 42.8458 13.8155 45.776 11.1517C48.7595 8.43461 51.4233 6.41012 53.7674 5.07822C56.1116 3.69304 58.4557 2.78734 60.7999 2.36114C63.144 1.88165 65.7812 1.64191 68.7114 1.64191C76.1167 1.64191 81.6841 3.69304 85.4134 7.7953C89.196 11.8976 91.0873 17.8645 91.0873 25.6961V79.9578L99.5582 82.5949V85.0723H55.2858V82.5949Z" fill="url(#paint0_radial_1791_1281)" fill-opacity="0.15"/>
<defs>
<radialGradient id="paint0_radial_1791_1281" cx="0" cy="0" r="1" gradientUnits="userSpaceOnUse" gradientTransform="translate(46.0306 33.4845) rotate(91.4826) scale(73.9895 60.5763)">
<stop offset="0.681485" stop-color="white" stop-opacity="0"/>
<stop offset="1" stop-color="white"/>
</radialGradient>
</defs>
</svg>
