<svg width="87" height="87" viewBox="0 0 87 87" fill="none" xmlns="http://www.w3.org/2000/svg">
<path d="M43.144 80.8759C46.5004 80.8759 49.1909 79.6505 51.2154 77.1998C53.2932 74.7491 54.7849 70.9133 55.6906 65.6922C56.5963 60.4179 57.0492 53.6252 57.0492 45.3141C57.0492 36.4703 56.5963 29.1182 55.6906 23.2578C54.8382 17.3441 53.3731 12.9222 51.2953 9.99204C49.2708 7.00858 46.5005 5.51685 42.9842 5.51685C39.5746 5.51685 36.8575 6.7422 34.833 9.1929C32.8085 11.6436 31.3434 15.4795 30.4377 20.7005C29.532 25.9216 29.0792 32.6877 29.0792 40.9987C29.0792 49.7893 29.5054 57.1414 30.3578 63.055C31.2102 68.9687 32.6487 73.4172 34.6732 76.4007C36.7509 79.3842 39.5745 80.8759 43.144 80.8759ZM42.1052 86.1502C33.8474 86.1502 26.5486 84.3388 20.2087 80.7161C13.8689 77.0933 8.91418 72.0853 5.34468 65.6922C1.82845 59.2458 0.0703125 51.8404 0.0703125 43.4761C0.0703125 34.8986 1.96161 27.3601 5.74421 20.8604C9.58009 14.3607 14.8012 9.29945 21.4074 5.67668C28.067 2.00063 35.5789 0.162598 43.9432 0.162598C52.4141 0.162598 59.7929 1.97399 66.0794 5.59676C72.366 9.16626 77.2674 14.1742 80.7837 20.6206C84.2999 27.0138 86.058 34.4191 86.058 42.8368C86.058 51.4142 84.1134 58.9794 80.2242 65.5324C76.3351 72.0321 71.0874 77.0933 64.4812 80.7161C57.8749 84.3388 50.4163 86.1502 42.1052 86.1502Z" fill="#030025"/>
<path d="M43.144 80.8759C46.5004 80.8759 49.1909 79.6505 51.2154 77.1998C53.2932 74.7491 54.7849 70.9133 55.6906 65.6922C56.5963 60.4179 57.0492 53.6252 57.0492 45.3141C57.0492 36.4703 56.5963 29.1182 55.6906 23.2578C54.8382 17.3441 53.3731 12.9222 51.2953 9.99204C49.2708 7.00858 46.5005 5.51685 42.9842 5.51685C39.5746 5.51685 36.8575 6.7422 34.833 9.1929C32.8085 11.6436 31.3434 15.4795 30.4377 20.7005C29.532 25.9216 29.0792 32.6877 29.0792 40.9987C29.0792 49.7893 29.5054 57.1414 30.3578 63.055C31.2102 68.9687 32.6487 73.4172 34.6732 76.4007C36.7509 79.3842 39.5745 80.8759 43.144 80.8759ZM42.1052 86.1502C33.8474 86.1502 26.5486 84.3388 20.2087 80.7161C13.8689 77.0933 8.91418 72.0853 5.34468 65.6922C1.82845 59.2458 0.0703125 51.8404 0.0703125 43.4761C0.0703125 34.8986 1.96161 27.3601 5.74421 20.8604C9.58009 14.3607 14.8012 9.29945 21.4074 5.67668C28.067 2.00063 35.5789 0.162598 43.9432 0.162598C52.4141 0.162598 59.7929 1.97399 66.0794 5.59676C72.366 9.16626 77.2674 14.1742 80.7837 20.6206C84.2999 27.0138 86.058 34.4191 86.058 42.8368C86.058 51.4142 84.1134 58.9794 80.2242 65.5324C76.3351 72.0321 71.0874 77.0933 64.4812 80.7161C57.8749 84.3388 50.4163 86.1502 42.1052 86.1502Z" fill="url(#paint0_radial_1791_1276)" fill-opacity="0.15"/>
<defs>
<radialGradient id="paint0_radial_1791_1276" cx="0" cy="0" r="1" gradientUnits="userSpaceOnUse" gradientTransform="translate(39.4217 33.4856) rotate(91.2654) scale(75.527 52.7822)">
<stop offset="0.681485" stop-color="white" stop-opacity="0"/>
<stop offset="1" stop-color="white"/>
</radialGradient>
</defs>
</svg>
