<svg width="141" height="84" viewBox="0 0 141 84" fill="none" xmlns="http://www.w3.org/2000/svg">
<path d="M125.057 6.03475L115.467 3.87706V1.2399H140.4V3.87706L131.849 6.11466L110.193 83.7912H93.2508L67.7581 19.3005L73.1923 17.4625L49.5377 83.7912H32.5959L8.78149 7.07364L0.310547 3.71724V1.2399H47.3001V3.87706L37.7903 6.35441L54.4125 65.3311L49.3778 70.7652L72.2333 0.36084H89.4149L114.428 64.8516L109.154 70.6853L125.057 6.03475Z" fill="#030025"/>
<path d="M125.057 6.03475L115.467 3.87706V1.2399H140.4V3.87706L131.849 6.11466L110.193 83.7912H93.2508L67.7581 19.3005L73.1923 17.4625L49.5377 83.7912H32.5959L8.78149 7.07364L0.310547 3.71724V1.2399H47.3001V3.87706L37.7903 6.35441L54.4125 65.3311L49.3778 70.7652L72.2333 0.36084H89.4149L114.428 64.8516L109.154 70.6853L125.057 6.03475Z" fill="url(#paint0_radial_1791_1277)" fill-opacity="0.15"/>
<defs>
<radialGradient id="paint0_radial_1791_1277" cx="0" cy="0" r="1" gradientUnits="userSpaceOnUse" gradientTransform="translate(64.4212 32.6929) rotate(92.1241) scale(73.3134 85.9537)">
<stop offset="0.681485" stop-color="white" stop-opacity="0"/>
<stop offset="1" stop-color="white"/>
</radialGradient>
</defs>
</svg>
